<svg width="108" height="103" viewBox="0 0 108 103" fill="none" xmlns="http://www.w3.org/2000/svg">
<g filter="url(#filter0_dd_1_4)">
<path d="M63.0693 33.2534C61.4938 33.2534 60.0347 33.3071 58.6919 33.4146C55.7736 33.6652 54.3145 34.1755 54.3145 34.9453C54.3145 35.1064 55.2007 35.3481 56.9731 35.6704C58.1906 35.8853 59.1753 36.1359 59.9272 36.4224C60.7866 36.7446 61.2163 37.3354 61.2163 38.1948C61.2163 38.8573 60.9746 39.5645 60.4912 40.3164C59.7214 41.5339 58.2891 42.7603 56.1943 43.9956C55.1738 44.6043 53.8132 45.0698 52.1123 45.3921C50.9844 45.589 49.3193 45.9113 47.1172 46.3589C42.498 47.4152 37.6909 47.9434 32.6958 47.9434C28.1304 47.9434 23.6007 47.0034 19.1069 45.1235C16.6004 44.0851 13.888 42.3753 10.9697 39.9941C8.53483 38.0247 6.35059 35.9658 4.41699 33.8174C2.80566 32.027 2 30.8991 2 30.4336C2 30.3978 2.00895 30.362 2.02686 30.3262C2.04476 30.2904 2.08057 30.2725 2.13428 30.2725C2.49235 30.2725 3.54867 31.0065 5.30322 32.4746C6.62809 33.5846 9.19727 34.7305 13.0107 35.9121C15.8932 36.8073 18.6772 37.5055 21.3628 38.0068C23.2069 38.3649 25.1226 38.6961 27.1099 39.0005C28.4347 39.1974 30.4757 39.5018 33.2329 39.9136C33.2687 39.9136 34.522 40.1195 36.9927 40.5312C38.3534 40.764 39.6156 40.8804 40.7793 40.8804C44.4316 40.8804 47.717 40.7371 50.6353 40.4507C54.0728 40.1284 56.1854 39.6719 56.9731 39.0811C56.6867 38.1501 55.6125 37.5771 53.7505 37.3623C52.7837 37.2549 51.8258 37.1475 50.877 37.04C50.7516 36.8252 50.689 36.5566 50.689 36.2344C50.689 34.9453 50.7785 33.2176 50.9575 31.0513C51.1724 28.2941 51.423 26.7275 51.7095 26.3516C52.6047 25.2236 53.9832 24.2926 55.8452 23.5586C57.2775 22.9857 58.8441 22.6545 60.5449 22.5649L63.0693 22.4575V33.2534ZM73.2207 3.09473L70.8306 5.94141L68.1719 3.60498L70.5352 1L73.2207 3.09473ZM73.0864 30.9976C72.2629 31.6421 70.8932 32.1702 68.9775 32.582C67.4378 32.9043 65.8981 33.0923 64.3584 33.146L62.1562 33.2534V22.4575H62.7739C67.9481 22.4575 71.3498 21.8398 72.979 20.6045C73.158 20.4434 73.2476 20.2017 73.2476 19.8794C73.2476 19.2707 72.979 18.6082 72.4419 17.8921L71.9316 17.5967C71.1081 19.2259 69.9891 20.0405 68.5747 20.0405C66.9634 20.0405 65.9966 19.1364 65.6743 17.3281L65.6475 16.9253C65.5938 15.9585 66.0413 14.6605 66.9902 13.0312C67.8138 11.5811 68.5926 10.856 69.3267 10.856C70.6515 10.856 71.869 11.8496 72.979 13.8369C73.3908 14.6068 73.731 15.5378 73.9995 16.6299C74.1248 17.2207 74.3039 18.3039 74.5366 19.8794C74.6619 20.8104 74.7246 21.9473 74.7246 23.29C74.7246 26.3516 74.5456 28.3926 74.1875 29.4131C73.9548 30.0934 73.5877 30.6216 73.0864 30.9976ZM69.7832 16.791C70.374 16.6299 70.6694 16.2629 70.6694 15.6899C70.6694 14.9022 69.8727 14.3472 68.2793 14.0249C68.1003 14.0249 67.8944 14.2397 67.6616 14.6694C67.4289 15.0991 67.3304 15.4393 67.3662 15.6899C67.5452 16.5672 68.0645 16.979 68.9238 16.9253L69.3535 16.8984C69.5326 16.8984 69.6758 16.8626 69.7832 16.791ZM93.98 33.2534L91.8584 33.3608C91.1602 33.3787 90.7752 33.4593 90.7036 33.6025C89.7368 35.6436 89.0296 37.0221 88.582 37.7383C86.4336 41.3727 83.7391 43.1899 80.4985 43.1899C79.6571 43.1899 78.3322 42.9214 76.5239 42.3843C74.4292 41.7576 73.3818 41.14 73.3818 40.5312C73.3818 40.3701 73.543 40.2985 73.8652 40.3164L74.2144 40.3433L76.0942 40.6387C76.6313 40.7103 77.2311 40.7461 77.8936 40.7461H78.4575C78.6724 40.7461 78.8962 40.7371 79.1289 40.7192C79.5765 40.6834 80.0062 40.6208 80.418 40.5312C81.4027 40.3343 82.7007 39.645 84.312 38.4634C86.3351 36.9774 87.7764 35.4287 88.6357 33.8174C88.7074 33.6742 88.6895 33.5667 88.582 33.4951C88.4746 33.4235 88.2956 33.3877 88.0449 33.3877L87.1587 33.4414L86.0039 33.4951C85.3773 33.5309 84.7954 33.4683 84.2583 33.3071C83.5959 33.1102 83.1035 32.7969 82.7812 32.3672C82.638 32.1882 82.4679 31.5347 82.271 30.4067C82.0203 29.0282 81.895 27.7749 81.895 26.647C81.895 25.4116 82.0203 24.3643 82.271 23.5049C82.5575 22.4844 82.7902 21.7772 82.9692 21.3833C83.2378 20.7746 83.6406 20.1569 84.1777 19.5303C85.3236 18.2233 86.1471 17.5967 86.6484 17.6504C87.472 17.8473 88.3224 18.5366 89.1997 19.7183C90.0054 20.7567 90.4798 21.6877 90.623 22.5112C90.6947 22.5649 90.7663 22.5918 90.8379 22.5918L91.4287 22.6187C91.6794 22.6366 92.3418 22.6007 93.416 22.5112L93.98 22.4575V33.2534ZM87.7764 23.0752C87.8838 23.0752 87.9465 22.9857 87.9644 22.8066C87.9644 22.4307 87.7406 21.9473 87.293 21.3564C86.8633 20.7477 86.4694 20.4434 86.1113 20.4434L85.8696 20.4971C85.5116 20.5687 85.1087 20.8193 84.6611 21.249C84.2314 21.6608 84.0614 22.0189 84.1509 22.3232C84.2225 22.5739 84.5269 22.7708 85.064 22.9141C85.7264 23.0215 86.6305 23.0752 87.7764 23.0752ZM105.259 31.7495C105.009 31.9106 104.74 32.027 104.454 32.0986L103.567 32.2061C102.618 32.2061 101.392 31.839 99.8882 31.105C98.6349 30.4784 97.9725 30.1919 97.9009 30.2456C97.1668 31.3198 96.2179 32.1434 95.0542 32.7163C94.2127 33.1281 93.4697 33.334 92.8252 33.334C92.6641 33.334 92.5566 33.3071 92.5029 33.2534V22.4575H93.604C93.7293 22.4217 93.8188 22.4038 93.8726 22.4038C94.8752 22.4038 95.7077 22.18 96.3701 21.7324C96.8356 21.446 97.4622 20.8283 98.25 19.8794L100.748 16.9521C101.589 15.9674 102.404 15.4751 103.191 15.4751C103.8 15.4751 104.337 15.8511 104.803 16.603C105.555 17.8384 106.02 19.1364 106.199 20.4971C106.217 20.6224 106.262 21.0342 106.333 21.7324L106.575 23.6123C106.665 24.5254 106.709 25.4027 106.709 26.2441C106.709 27.3542 106.584 28.8312 106.333 30.6753C106.316 30.9438 105.958 31.3019 105.259 31.7495ZM103.917 21.3564C103.952 21.3206 103.97 21.2759 103.97 21.2222C103.97 20.9715 103.782 20.506 103.406 19.8257C102.941 18.9484 102.556 18.5366 102.251 18.5903C100.873 18.8589 100.184 19.217 100.184 19.6646C100.184 20.0942 100.676 20.506 101.661 20.8999C102.52 21.2401 103.209 21.4102 103.729 21.4102C103.836 21.4102 103.899 21.3923 103.917 21.3564ZM23.5381 68.7549L21.3628 71.0376L18.6504 68.8354L20.8257 66.3647L23.5381 68.7549ZM18.6504 68.8354L16.4482 71.1719L13.7358 68.9966L15.8574 66.4185L18.6504 68.8354ZM36.0796 92.2534H35.811L35.4619 92.2803C34.889 92.3161 34.2087 92.2624 33.4209 92.1191C32.3288 91.9043 31.4515 91.1971 30.7891 89.9976L30.3325 89.2188L28.8555 90.1587C28.2109 90.5526 27.2531 91.0181 25.9819 91.5552C22.3833 93.0233 18.5519 93.7573 14.4878 93.7573C12.8944 93.7573 11.3009 93.6141 9.70752 93.3276C8.49007 93.0949 7.28158 92.1012 6.08203 90.3467C5.13314 88.9681 4.28271 87.2852 3.53076 85.2979C2.7251 83.1315 2.32227 81.3143 2.32227 79.8462C2.32227 78.8973 2.59082 77.7873 3.12793 76.5161C3.77246 74.9764 4.49756 74.2065 5.30322 74.2065L5.49121 74.2871C5.58073 74.3229 5.62549 74.3856 5.62549 74.4751L4.79297 76.4624C4.56022 77.0532 4.44385 77.5993 4.44385 78.1006C4.44385 80.1774 6.53857 81.6276 10.728 82.4512C12.035 82.7197 13.5031 82.854 15.1323 82.854C17.5135 82.854 19.9842 82.5854 22.5444 82.0483C25.4269 81.4396 27.7633 80.625 29.5537 79.6045L31.4604 78.2617C31.8722 77.9574 32.1766 77.8052 32.3735 77.8052C32.4989 77.8052 32.5436 77.8768 32.5078 78.02L32.481 78.6108C32.3735 79.7567 32.9733 80.5892 34.2803 81.1084C34.6025 81.2337 35.2023 81.3501 36.0796 81.4575V92.2534ZM45.3179 98.2153L43.1694 100.525L40.4033 98.3228L42.6592 95.8521L45.3179 98.2153ZM40.4033 98.3228L38.2817 100.632L35.4888 98.457L37.6909 95.9058L40.4033 98.3228ZM39.0068 91.1523C38.3623 91.5283 37.4761 91.8058 36.3481 91.9849L34.5488 92.2534V81.4575L36.2944 81.3232C37.4761 81.2516 38.3534 81.0457 38.9263 80.7056C39.1232 80.5981 39.2217 80.1416 39.2217 79.3359C39.2217 78.6914 38.8547 77.7604 38.1206 76.543L36.7778 74.2871C36.7599 74.2334 36.751 74.1707 36.751 74.0991C36.751 73.7948 36.9032 73.2935 37.2075 72.5952C37.5835 71.7358 37.8431 71.3151 37.9863 71.333C39.6872 72.8011 40.5376 75.1733 40.5376 78.4497C40.5376 84.895 40.4033 88.5563 40.1348 89.4336C39.8662 90.293 39.4902 90.8659 39.0068 91.1523ZM59.981 92.2534L59.5513 92.2803L58.9067 92.3071C57.5461 92.3608 56.2839 92.1102 55.1201 91.5552C53.5267 90.7853 52.5868 89.5679 52.3003 87.9028C52.1571 87.0256 52.0138 86.0946 51.8706 85.1099C51.8348 84.8413 51.7363 82.8361 51.5752 79.0942L51.4141 75.0659C51.4141 69.0682 51.3245 65.4606 51.1455 64.2432L50.5815 60.4028L50.6621 60C51.5752 57.8516 52.1213 56.7773 52.3003 56.7773C52.4793 56.7773 52.6405 57.1891 52.7837 58.0127C52.9269 58.8363 53.0881 60.4118 53.2671 62.7393C53.3387 66.0335 53.5446 70.4557 53.8848 76.0059C53.9922 76.9906 54.1265 77.7873 54.2876 78.396C54.5562 79.5597 54.8963 80.2759 55.3081 80.5444C56.2749 81.189 57.4565 81.5112 58.853 81.5112H59.6855C59.8288 81.5112 59.9272 81.4933 59.981 81.4575V92.2534ZM64.251 65.8008L62.1025 68.1372L59.3364 65.9619L61.5386 63.3838L64.251 65.8008ZM63.3379 91.1523C62.6934 91.5283 61.8071 91.8058 60.6792 91.9849L58.8799 92.2534V81.4575L60.6255 81.3232C61.8071 81.2516 62.6844 81.0457 63.2573 80.7056C63.4543 80.5981 63.5527 80.1416 63.5527 79.3359C63.5527 78.6914 63.1857 77.7604 62.4517 76.543L61.1089 74.2871C61.091 74.2334 61.082 74.1707 61.082 74.0991C61.082 73.7948 61.2342 73.2935 61.5386 72.5952C61.9146 71.7358 62.1742 71.3151 62.3174 71.333C64.0182 72.8011 64.8687 75.1733 64.8687 78.4497C64.8687 84.895 64.7344 88.5563 64.4658 89.4336C64.1973 90.293 63.8213 90.8659 63.3379 91.1523Z" fill="black"/>
</g>
<defs>
<filter id="filter0_dd_1_4" x="0" y="0" width="107.709" height="102.632" filterUnits="userSpaceOnUse" color-interpolation-filters="sRGB">
<feFlood flood-opacity="0" result="BackgroundImageFix"/>
<feColorMatrix in="SourceAlpha" type="matrix" values="0 0 0 0 0 0 0 0 0 0 0 0 0 0 0 0 0 0 127 0" result="hardAlpha"/>
<feOffset dx="-2" dy="2"/>
<feComposite in2="hardAlpha" operator="out"/>
<feColorMatrix type="matrix" values="0 0 0 0 0.764423 0 0 0 0 0.0404262 0 0 0 0 0.0404262 0 0 0 0.7 0"/>
<feBlend mode="normal" in2="BackgroundImageFix" result="effect1_dropShadow_1_4"/>
<feColorMatrix in="SourceAlpha" type="matrix" values="0 0 0 0 0 0 0 0 0 0 0 0 0 0 0 0 0 0 127 0" result="hardAlpha"/>
<feOffset dx="1" dy="-1"/>
<feComposite in2="hardAlpha" operator="out"/>
<feColorMatrix type="matrix" values="0 0 0 0 0.0891503 0 0 0 0 0.199205 0 0 0 0 0.639423 0 0 0 0.7 0"/>
<feBlend mode="normal" in2="effect1_dropShadow_1_4" result="effect2_dropShadow_1_4"/>
<feBlend mode="normal" in="SourceGraphic" in2="effect2_dropShadow_1_4" result="shape"/>
</filter>
</defs>
</svg>
