<svg width="32" height="32" viewBox="0 0 32 32" fill="none" xmlns="http://www.w3.org/2000/svg">
<rect width="32" height="32" fill="white"/>
<g filter="url(#filter0_dd_1_2)">
<path d="M18.4902 12C18.0892 12 17.7178 12.0137 17.376 12.041C16.6331 12.1048 16.2617 12.2347 16.2617 12.4307C16.2617 12.4717 16.4873 12.5332 16.9385 12.6152C17.2484 12.6699 17.499 12.7337 17.6904 12.8066C17.9092 12.8887 18.0186 13.0391 18.0186 13.2578C18.0186 13.4264 17.957 13.6064 17.834 13.7979C17.638 14.1077 17.2734 14.4199 16.7402 14.7344C16.4805 14.8893 16.1341 15.0078 15.7012 15.0898C15.4141 15.14 14.9902 15.222 14.4297 15.3359C13.2539 15.6048 12.0303 15.7393 10.7588 15.7393C9.59668 15.7393 8.44368 15.5 7.2998 15.0215C6.66178 14.7572 5.97135 14.3219 5.22852 13.7158C4.60872 13.2145 4.05273 12.6904 3.56055 12.1436C3.15039 11.6878 2.94531 11.4007 2.94531 11.2822C2.94531 11.2731 2.94759 11.264 2.95215 11.2549C2.95671 11.2458 2.96582 11.2412 2.97949 11.2412C3.07064 11.2412 3.33952 11.4281 3.78613 11.8018C4.12337 12.0843 4.77734 12.376 5.74805 12.6768C6.48177 12.9046 7.19043 13.0824 7.87402 13.21C8.34342 13.3011 8.83105 13.3854 9.33691 13.4629C9.67415 13.513 10.1937 13.5905 10.8955 13.6953C10.9046 13.6953 11.2236 13.7477 11.8525 13.8525C12.1989 13.9118 12.5202 13.9414 12.8164 13.9414C13.7461 13.9414 14.5824 13.9049 15.3252 13.832C16.2002 13.75 16.738 13.6338 16.9385 13.4834C16.8656 13.2464 16.5921 13.1006 16.1182 13.0459C15.8721 13.0186 15.6283 12.9912 15.3867 12.9639C15.3548 12.9092 15.3389 12.8408 15.3389 12.7588C15.3389 12.4307 15.3617 11.9909 15.4072 11.4395C15.4619 10.7376 15.5257 10.3389 15.5986 10.2432C15.8265 9.95605 16.1774 9.71908 16.6514 9.53223C17.016 9.38639 17.4147 9.30208 17.8477 9.2793L18.4902 9.25195V12ZM21.0742 4.32324L20.4658 5.04785L19.7891 4.45312L20.3906 3.79004L21.0742 4.32324ZM21.04 11.4258C20.8304 11.5898 20.4818 11.7243 19.9941 11.8291C19.6022 11.9111 19.2103 11.959 18.8184 11.9727L18.2578 12V9.25195H18.415C19.7321 9.25195 20.598 9.09473 21.0127 8.78027C21.0583 8.73926 21.0811 8.67773 21.0811 8.5957C21.0811 8.44076 21.0127 8.27214 20.876 8.08984L20.7461 8.01465C20.5365 8.42936 20.2516 8.63672 19.8916 8.63672C19.4814 8.63672 19.2354 8.40658 19.1533 7.94629L19.1465 7.84375C19.1328 7.59766 19.2467 7.26725 19.4883 6.85254C19.6979 6.4834 19.8962 6.29883 20.083 6.29883C20.4202 6.29883 20.7301 6.55176 21.0127 7.05762C21.1175 7.25358 21.2041 7.49056 21.2725 7.76855C21.3044 7.91895 21.3499 8.19466 21.4092 8.5957C21.4411 8.83268 21.457 9.12207 21.457 9.46387C21.457 10.2432 21.4115 10.7627 21.3203 11.0225C21.2611 11.1956 21.1676 11.3301 21.04 11.4258ZM20.1992 7.80957C20.3496 7.76855 20.4248 7.67513 20.4248 7.5293C20.4248 7.32878 20.222 7.1875 19.8164 7.10547C19.7708 7.10547 19.7184 7.16016 19.6592 7.26953C19.5999 7.37891 19.5749 7.46549 19.584 7.5293C19.6296 7.7526 19.7617 7.85742 19.9805 7.84375L20.0898 7.83691C20.1354 7.83691 20.1719 7.8278 20.1992 7.80957ZM26.3584 12L25.8184 12.0273C25.6406 12.0319 25.5426 12.0524 25.5244 12.0889C25.2783 12.6084 25.0983 12.9593 24.9844 13.1416C24.4375 14.0667 23.7516 14.5293 22.9268 14.5293C22.7126 14.5293 22.3753 14.4609 21.915 14.3242C21.3818 14.1647 21.1152 14.0075 21.1152 13.8525C21.1152 13.8115 21.1562 13.7933 21.2383 13.7979L21.3271 13.8047L21.8057 13.8799C21.9424 13.8981 22.0951 13.9072 22.2637 13.9072H22.4072C22.4619 13.9072 22.5189 13.9049 22.5781 13.9004C22.6921 13.8913 22.8014 13.8753 22.9062 13.8525C23.1569 13.8024 23.4873 13.627 23.8975 13.3262C24.4124 12.9479 24.7793 12.5537 24.998 12.1436C25.0163 12.1071 25.0117 12.0798 24.9844 12.0615C24.957 12.0433 24.9115 12.0342 24.8477 12.0342L24.6221 12.0479L24.3281 12.0615C24.1686 12.0706 24.0205 12.0547 23.8838 12.0137C23.7152 11.9635 23.5898 11.8838 23.5078 11.7744C23.4714 11.7288 23.4281 11.5625 23.3779 11.2754C23.3141 10.9245 23.2822 10.6055 23.2822 10.3184C23.2822 10.0039 23.3141 9.7373 23.3779 9.51855C23.4508 9.25879 23.5101 9.07878 23.5557 8.97852C23.624 8.82357 23.7266 8.66634 23.8633 8.50684C24.1549 8.17415 24.3646 8.01465 24.4922 8.02832C24.7018 8.07845 24.9183 8.25391 25.1416 8.55469C25.3467 8.81901 25.4674 9.05599 25.5039 9.26562C25.5221 9.2793 25.5404 9.28613 25.5586 9.28613L25.709 9.29297C25.7728 9.29753 25.9414 9.28841 26.2148 9.26562L26.3584 9.25195V12ZM24.7793 9.40918C24.8066 9.40918 24.8226 9.38639 24.8271 9.34082C24.8271 9.24512 24.7702 9.12207 24.6562 8.97168C24.5469 8.81673 24.4466 8.73926 24.3555 8.73926L24.2939 8.75293C24.2028 8.77116 24.1003 8.83496 23.9863 8.94434C23.877 9.04915 23.8337 9.1403 23.8564 9.21777C23.8747 9.28158 23.9521 9.33171 24.0889 9.36816C24.2575 9.39551 24.4876 9.40918 24.7793 9.40918ZM29.2295 11.6172C29.1657 11.6582 29.0973 11.6878 29.0244 11.7061L28.7988 11.7334C28.5573 11.7334 28.2451 11.64 27.8623 11.4531C27.5433 11.2936 27.3747 11.2207 27.3564 11.2344C27.1696 11.5078 26.9281 11.7174 26.6318 11.8633C26.4176 11.9681 26.2285 12.0205 26.0645 12.0205C26.0234 12.0205 25.9961 12.0137 25.9824 12V9.25195H26.2627C26.2946 9.24284 26.3174 9.23828 26.3311 9.23828C26.5863 9.23828 26.7982 9.18132 26.9668 9.06738C27.0853 8.99447 27.2448 8.83724 27.4453 8.5957L28.0811 7.85059C28.2952 7.59993 28.5026 7.47461 28.7031 7.47461C28.8581 7.47461 28.9948 7.57031 29.1133 7.76172C29.3047 8.07617 29.4232 8.40658 29.4688 8.75293C29.4733 8.78483 29.4847 8.88965 29.5029 9.06738L29.5645 9.5459C29.5872 9.77832 29.5986 10.0016 29.5986 10.2158C29.5986 10.4984 29.5667 10.8743 29.5029 11.3438C29.4984 11.4121 29.4072 11.5033 29.2295 11.6172ZM28.8877 8.97168C28.8968 8.96257 28.9014 8.95117 28.9014 8.9375C28.9014 8.8737 28.8535 8.75521 28.7578 8.58203C28.6393 8.35872 28.5413 8.25391 28.4639 8.26758C28.113 8.33594 27.9375 8.42708 27.9375 8.54102C27.9375 8.65039 28.0628 8.75521 28.3135 8.85547C28.5322 8.94206 28.7077 8.98535 28.8398 8.98535C28.8672 8.98535 28.8831 8.98079 28.8877 8.97168ZM8.42773 21.0186L7.87402 21.5996L7.18359 21.0391L7.7373 20.4102L8.42773 21.0186ZM7.18359 21.0391L6.62305 21.6338L5.93262 21.0801L6.47266 20.4238L7.18359 21.0391ZM11.6201 27H11.5518L11.4629 27.0068C11.3171 27.016 11.1439 27.0023 10.9434 26.9658C10.6654 26.9111 10.4421 26.7311 10.2734 26.4258L10.1572 26.2275L9.78125 26.4668C9.61719 26.5671 9.37337 26.6855 9.0498 26.8223C8.13379 27.196 7.15853 27.3828 6.12402 27.3828C5.71842 27.3828 5.31283 27.3464 4.90723 27.2734C4.59733 27.2142 4.28971 26.9613 3.98438 26.5146C3.74284 26.1637 3.52637 25.7354 3.33496 25.2295C3.12988 24.6781 3.02734 24.2155 3.02734 23.8418C3.02734 23.6003 3.0957 23.3177 3.23242 22.9941C3.39648 22.6022 3.58105 22.4062 3.78613 22.4062L3.83398 22.4268C3.85677 22.4359 3.86816 22.4518 3.86816 22.4746L3.65625 22.9805C3.59701 23.1309 3.56738 23.2699 3.56738 23.3975C3.56738 23.9261 4.10059 24.2952 5.16699 24.5049C5.49967 24.5732 5.87337 24.6074 6.28809 24.6074C6.89421 24.6074 7.52311 24.5391 8.1748 24.4023C8.90853 24.2474 9.50326 24.04 9.95898 23.7803L10.4443 23.4385C10.5492 23.361 10.6266 23.3223 10.6768 23.3223C10.7087 23.3223 10.7201 23.3405 10.7109 23.377L10.7041 23.5273C10.6768 23.819 10.8294 24.0309 11.1621 24.1631C11.2441 24.195 11.3968 24.2246 11.6201 24.252V27ZM13.9717 28.5176L13.4248 29.1055L12.7207 28.5449L13.2949 27.916L13.9717 28.5176ZM12.7207 28.5449L12.1807 29.1328L11.4697 28.5791L12.0303 27.9297L12.7207 28.5449ZM12.3652 26.7197C12.2012 26.8154 11.9756 26.8861 11.6885 26.9316L11.2305 27V24.252L11.6748 24.2178C11.9756 24.1995 12.1989 24.1471 12.3447 24.0605C12.3949 24.0332 12.4199 23.917 12.4199 23.7119C12.4199 23.5479 12.3265 23.3109 12.1396 23.001L11.7979 22.4268C11.7933 22.4131 11.791 22.3971 11.791 22.3789C11.791 22.3014 11.8298 22.1738 11.9072 21.9961C12.0029 21.7773 12.069 21.6702 12.1055 21.6748C12.5384 22.0485 12.7549 22.6523 12.7549 23.4863C12.7549 25.127 12.7207 26.0589 12.6523 26.2822C12.584 26.501 12.4883 26.6468 12.3652 26.7197ZM17.7041 27L17.5947 27.0068L17.4307 27.0137C17.0843 27.0273 16.763 26.9635 16.4668 26.8223C16.0612 26.6263 15.8219 26.3164 15.749 25.8926C15.7126 25.6693 15.6761 25.4323 15.6396 25.1816C15.6305 25.1133 15.6055 24.6029 15.5645 23.6504L15.5234 22.625C15.5234 21.0983 15.5007 20.18 15.4551 19.8701L15.3115 18.8926L15.332 18.79C15.5645 18.2432 15.7035 17.9697 15.749 17.9697C15.7946 17.9697 15.8356 18.0745 15.8721 18.2842C15.9085 18.4938 15.9495 18.8949 15.9951 19.4873C16.0133 20.3258 16.0658 21.4515 16.1523 22.8643C16.1797 23.1149 16.2139 23.3177 16.2549 23.4727C16.3232 23.7689 16.4098 23.9512 16.5146 24.0195C16.7607 24.1836 17.0615 24.2656 17.417 24.2656H17.6289C17.6654 24.2656 17.6904 24.2611 17.7041 24.252V27ZM18.791 20.2666L18.2441 20.8613L17.54 20.3076L18.1006 19.6514L18.791 20.2666ZM18.5586 26.7197C18.3945 26.8154 18.1689 26.8861 17.8818 26.9316L17.4238 27V24.252L17.8682 24.2178C18.1689 24.1995 18.3923 24.1471 18.5381 24.0605C18.5882 24.0332 18.6133 23.917 18.6133 23.7119C18.6133 23.5479 18.5199 23.3109 18.333 23.001L17.9912 22.4268C17.9867 22.4131 17.9844 22.3971 17.9844 22.3789C17.9844 22.3014 18.0231 22.1738 18.1006 21.9961C18.1963 21.7773 18.2624 21.6702 18.2988 21.6748C18.7318 22.0485 18.9482 22.6523 18.9482 23.4863C18.9482 25.127 18.9141 26.0589 18.8457 26.2822C18.7773 26.501 18.6816 26.6468 18.5586 26.7197Z" fill="black"/>
</g>
<defs>
<filter id="filter0_dd_1_2" x="1.94531" y="3.79004" width="27.6533" height="27.3428" filterUnits="userSpaceOnUse" color-interpolation-filters="sRGB">
<feFlood flood-opacity="0" result="BackgroundImageFix"/>
<feColorMatrix in="SourceAlpha" type="matrix" values="0 0 0 0 0 0 0 0 0 0 0 0 0 0 0 0 0 0 127 0" result="hardAlpha"/>
<feOffset dx="-1" dy="2"/>
<feComposite in2="hardAlpha" operator="out"/>
<feColorMatrix type="matrix" values="0 0 0 0 0.764423 0 0 0 0 0.0404262 0 0 0 0 0.0404262 0 0 0 0.7 0"/>
<feBlend mode="normal" in2="BackgroundImageFix" result="effect1_dropShadow_1_2"/>
<feColorMatrix in="SourceAlpha" type="matrix" values="0 0 0 0 0 0 0 0 0 0 0 0 0 0 0 0 0 0 127 0" result="hardAlpha"/>
<feOffset dy="1"/>
<feComposite in2="hardAlpha" operator="out"/>
<feColorMatrix type="matrix" values="0 0 0 0 0.0891503 0 0 0 0 0.199205 0 0 0 0 0.639423 0 0 0 0.7 0"/>
<feBlend mode="normal" in2="effect1_dropShadow_1_2" result="effect2_dropShadow_1_2"/>
<feBlend mode="normal" in="SourceGraphic" in2="effect2_dropShadow_1_2" result="shape"/>
</filter>
</defs>
</svg>
